# xmcd CD database file
#
# Track frame offsets:
#	150
#	22637
#	45282
#	64252
#	78000
#	99530
#	109382
#	136425
#	159397
#	183205
#	203477
#	220475
#	233025
#
# Disc length: 3268 seconds
#
# Revision: 0
# Processed by: cddbd v1.5.2PL0 Copyright (c) Steve Scherf et al.
# Submitted via: CDex 1.70beta2
#
DISCID=9e0cc20d
DTITLE=Kim Cunio - under eastern skies
DYEAR=2002
DGENRE=New Age
TTITLE0=Vajra Guru Mantra
TTITLE1=Bardot of Becoming
TTITLE2=Om Mane Padme Hum
TTITLE3=Sarnath
TTITLE4=Tara
TTITLE5=Ashoka
TTITLE6=Hungry Ghosts
TTITLE7=Om Ami Dewa Hrih
TTITLE8=The Road to Bodhgaya
TTITLE9=Tadaji
TTITLE10=Om Mane Pdem Him (Choir)
TTITLE11=Dream of Bodhidharma
TTITLE12=Mantra for Padhmasambhava
EXTD=YEAR: 2002
EXTT0=
EXTT1=
EXTT2=
EXTT3=
EXTT4=
EXTT5=
EXTT6=
EXTT7=
EXTT8=
EXTT9=
EXTT10=
EXTT11=
EXTT12=
PLAYORDER=
